<mxfile host="65bd71144e">
    <diagram id="agK9bPm_QYynmStlEtDZ" name="rollup-layer2">
        <mxGraphModel dx="353" dy="302" grid="1" gridSize="10" guides="1" tooltips="1" connect="1" arrows="1" fold="1" page="1" pageScale="1" pageWidth="850" pageHeight="1100" math="0" shadow="0">
            <root>
                <mxCell id="0"/>
                <mxCell id="1" parent="0"/>
                <mxCell id="2" value="Ethereum" style="rounded=0;whiteSpace=wrap;html=1;verticalAlign=top;" vertex="1" parent="1">
                    <mxGeometry x="210" y="470" width="460" height="150" as="geometry"/>
                </mxCell>
                <mxCell id="3" value="Arbitration" style="ellipse;whiteSpace=wrap;html=1;aspect=fixed;verticalAlign=middle;" vertex="1" parent="1">
                    <mxGeometry x="570" y="505" width="80" height="80" as="geometry"/>
                </mxCell>
                <mxCell id="4" value="Settlement" style="rounded=0;whiteSpace=wrap;html=1;dashed=1;fillColor=none;verticalAlign=bottom;" vertex="1" parent="1">
                    <mxGeometry x="343" y="495" width="212" height="115" as="geometry"/>
                </mxCell>
                <mxCell id="5" value="State Commitment&lt;br&gt;Chain" style="ellipse;whiteSpace=wrap;html=1;aspect=fixed;" vertex="1" parent="1">
                    <mxGeometry x="361" y="505" width="80" height="80" as="geometry"/>
                </mxCell>
                <mxCell id="6" value="Bridge" style="ellipse;whiteSpace=wrap;html=1;aspect=fixed;" vertex="1" parent="1">
                    <mxGeometry x="458" y="505" width="80" height="80" as="geometry"/>
                </mxCell>
                <mxCell id="8" value="DA" style="rounded=0;whiteSpace=wrap;html=1;dashed=1;fillColor=none;verticalAlign=bottom;" vertex="1" parent="1">
                    <mxGeometry x="218.5" y="495" width="111.5" height="115" as="geometry"/>
                </mxCell>
                <mxCell id="9" value="Canonical&lt;br&gt;Transaction&lt;br&gt;Chain" style="ellipse;whiteSpace=wrap;html=1;aspect=fixed;verticalAlign=middle;" vertex="1" parent="1">
                    <mxGeometry x="234" y="505" width="80" height="80" as="geometry"/>
                </mxCell>
                <mxCell id="10" value="Rollup Layer2 Network" style="rounded=0;whiteSpace=wrap;html=1;fillStyle=auto;fillColor=#DBDBDB;fontColor=#333333;strokeColor=#DBDBDB;verticalAlign=top;align=center;" vertex="1" parent="1">
                    <mxGeometry x="210" y="320" width="460" height="97" as="geometry"/>
                </mxCell>
                <mxCell id="14" style="edgeStyle=none;html=1;" edge="1" parent="1" source="11" target="9">
                    <mxGeometry relative="1" as="geometry"/>
                </mxCell>
                <mxCell id="15" value="Append Batch Txn" style="edgeLabel;html=1;align=center;verticalAlign=middle;resizable=0;points=[];" vertex="1" connectable="0" parent="14">
                    <mxGeometry x="-0.2496" relative="1" as="geometry">
                        <mxPoint as="offset"/>
                    </mxGeometry>
                </mxCell>
                <mxCell id="11" value="Sequencer" style="ellipse;whiteSpace=wrap;html=1;aspect=fixed;verticalAlign=middle;fontSize=10;" vertex="1" parent="1">
                    <mxGeometry x="243.13" y="351.75" width="61.75" height="61.75" as="geometry"/>
                </mxCell>
                <mxCell id="16" style="edgeStyle=none;html=1;exitX=0.5;exitY=1;exitDx=0;exitDy=0;" edge="1" parent="1" source="12" target="5">
                    <mxGeometry relative="1" as="geometry"/>
                </mxCell>
                <mxCell id="17" value="Append Batch StateRoot" style="edgeLabel;html=1;align=center;verticalAlign=middle;resizable=0;points=[];" vertex="1" connectable="0" parent="16">
                    <mxGeometry x="-0.1841" relative="1" as="geometry">
                        <mxPoint as="offset"/>
                    </mxGeometry>
                </mxCell>
                <mxCell id="12" value="Proposer" style="ellipse;whiteSpace=wrap;html=1;aspect=fixed;verticalAlign=middle;fontSize=10;" vertex="1" parent="1">
                    <mxGeometry x="370.5" y="352.5" width="61" height="61" as="geometry"/>
                </mxCell>
                <mxCell id="18" style="edgeStyle=none;html=1;entryX=0.5;entryY=0;entryDx=0;entryDy=0;" edge="1" parent="1" source="13" target="3">
                    <mxGeometry relative="1" as="geometry"/>
                </mxCell>
                <mxCell id="19" value="Submit Fraud Proof" style="edgeLabel;html=1;align=center;verticalAlign=middle;resizable=0;points=[];" vertex="1" connectable="0" parent="18">
                    <mxGeometry x="-0.0529" y="1" relative="1" as="geometry">
                        <mxPoint as="offset"/>
                    </mxGeometry>
                </mxCell>
                <mxCell id="13" value="Challenger" style="ellipse;whiteSpace=wrap;html=1;aspect=fixed;verticalAlign=middle;fontSize=10;" vertex="1" parent="1">
                    <mxGeometry x="580" y="353.5" width="60" height="60" as="geometry"/>
                </mxCell>
            </root>
        </mxGraphModel>
    </diagram>
    <diagram id="C2hezIXoYUNsMxzoQrbV" name="modular-rollup-layer2">
        <mxGraphModel dx="353" dy="302" grid="1" gridSize="10" guides="1" tooltips="1" connect="1" arrows="1" fold="1" page="1" pageScale="1" pageWidth="850" pageHeight="1100" math="0" shadow="0">
            <root>
                <mxCell id="0"/>
                <mxCell id="1" parent="0"/>
                <mxCell id="sjcygIqn1EbpoVYiwdxF-1" value="Modular Rollup Layer2" style="rounded=0;whiteSpace=wrap;html=1;fillStyle=auto;fillColor=#DBDBDB;fontColor=#333333;strokeColor=#DBDBDB;verticalAlign=top;align=center;" vertex="1" parent="1">
                    <mxGeometry x="280" y="292" width="340" height="97" as="geometry"/>
                </mxCell>
                <mxCell id="sjcygIqn1EbpoVYiwdxF-2" value="DA" style="rounded=0;whiteSpace=wrap;html=1;fillColor=none;dashed=1;verticalAlign=bottom;align=center;" vertex="1" parent="1">
                    <mxGeometry x="160" y="291.13" width="210" height="118.87" as="geometry"/>
                </mxCell>
                <mxCell id="sjcygIqn1EbpoVYiwdxF-3" value="DA Chain" style="rounded=0;whiteSpace=wrap;html=1;fillColor=none;verticalAlign=bottom;" vertex="1" parent="1">
                    <mxGeometry x="171" y="299" width="87" height="88" as="geometry"/>
                </mxCell>
                <mxCell id="sjcygIqn1EbpoVYiwdxF-4" value="Canonical&lt;br style=&quot;font-size: 10px;&quot;&gt;Transaction&lt;br style=&quot;font-size: 10px;&quot;&gt;Chain" style="ellipse;whiteSpace=wrap;html=1;aspect=fixed;verticalAlign=middle;fontSize=10;" vertex="1" parent="1">
                    <mxGeometry x="183.37" y="304" width="64.75" height="64.75" as="geometry"/>
                </mxCell>
                <mxCell id="sjcygIqn1EbpoVYiwdxF-5" value="Sequencer" style="ellipse;whiteSpace=wrap;html=1;aspect=fixed;verticalAlign=middle;fontSize=10;" vertex="1" parent="1">
                    <mxGeometry x="300" y="317.75" width="61.75" height="61.75" as="geometry"/>
                </mxCell>
                <mxCell id="sjcygIqn1EbpoVYiwdxF-6" value="Proposer" style="ellipse;whiteSpace=wrap;html=1;aspect=fixed;verticalAlign=middle;fontSize=10;" vertex="1" parent="1">
                    <mxGeometry x="416" y="320.5" width="61" height="61" as="geometry"/>
                </mxCell>
                <mxCell id="sjcygIqn1EbpoVYiwdxF-7" value="Challenger" style="ellipse;whiteSpace=wrap;html=1;aspect=fixed;verticalAlign=middle;fontSize=10;" vertex="1" parent="1">
                    <mxGeometry x="533" y="321.5" width="60" height="60" as="geometry"/>
                </mxCell>
                <mxCell id="sjcygIqn1EbpoVYiwdxF-8" value="" style="shape=flexArrow;endArrow=classic;html=1;startArrow=block;" edge="1" parent="1">
                    <mxGeometry width="50" height="50" relative="1" as="geometry">
                        <mxPoint x="399" y="458" as="sourcePoint"/>
                        <mxPoint x="399" y="398" as="targetPoint"/>
                    </mxGeometry>
                </mxCell>
                <mxCell id="sjcygIqn1EbpoVYiwdxF-9" value="Ethereum" style="rounded=0;whiteSpace=wrap;html=1;verticalAlign=top;" vertex="1" parent="1">
                    <mxGeometry x="160" y="470" width="460" height="150" as="geometry"/>
                </mxCell>
                <mxCell id="sjcygIqn1EbpoVYiwdxF-10" value="Arbitration" style="ellipse;whiteSpace=wrap;html=1;aspect=fixed;verticalAlign=middle;" vertex="1" parent="1">
                    <mxGeometry x="520" y="500" width="80" height="80" as="geometry"/>
                </mxCell>
                <mxCell id="sjcygIqn1EbpoVYiwdxF-11" value="Settlement" style="rounded=0;whiteSpace=wrap;html=1;dashed=1;fillColor=none;verticalAlign=bottom;" vertex="1" parent="1">
                    <mxGeometry x="286" y="495" width="212" height="115" as="geometry"/>
                </mxCell>
                <mxCell id="sjcygIqn1EbpoVYiwdxF-12" value="State Commitment&lt;br&gt;Chain" style="ellipse;whiteSpace=wrap;html=1;aspect=fixed;" vertex="1" parent="1">
                    <mxGeometry x="296" y="500" width="80" height="80" as="geometry"/>
                </mxCell>
                <mxCell id="sjcygIqn1EbpoVYiwdxF-13" value="Bridge" style="ellipse;whiteSpace=wrap;html=1;aspect=fixed;" vertex="1" parent="1">
                    <mxGeometry x="408" y="500" width="80" height="80" as="geometry"/>
                </mxCell>
                <mxCell id="sjcygIqn1EbpoVYiwdxF-14" value="L1ToL2&lt;br&gt;Transaction&amp;nbsp;&lt;br&gt;Queue" style="ellipse;whiteSpace=wrap;html=1;aspect=fixed;verticalAlign=middle;" vertex="1" parent="1">
                    <mxGeometry x="184" y="505" width="80" height="80" as="geometry"/>
                </mxCell>
            </root>
        </mxGraphModel>
    </diagram>
</mxfile>